<svg width="10000" height="2000" viewBox="0 0 10000 2000" fill="none" xmlns="http://www.w3.org/2000/svg">
<g clip-path="url(#clip0)">
<rect width="10000" height="2000" fill="white"/>
<path d="M10000 11H0V2000H10000V11Z" fill="url(#paint0_linear)"/>
<path d="M1108 1198.97C1237.53 1157.44 1362.87 1264.92 1362.87 1264.92C1362.87 1264.92 1440.86 1056.25 1570.23 1030.38C1699.61 1004.51 1811.58 1157.44 1811.58 1157.44C1811.58 1157.44 1812.22 912.075 2031.66 874.497C2134.71 856.851 2264.89 1056.72 2264.89 1056.72C2264.89 1056.72 2299.92 822.493 2461.07 808.012C2652.89 790.774 2732.35 974.563 2732.35 974.563C2732.35 974.563 2802.97 797.501 2973.92 808.012C3144.86 818.524 3223.38 974.563 3223.38 974.563C3223.38 974.563 3272.37 698.769 3465.91 679.912C3659.45 661.055 3789.2 974.563 3789.2 974.563C3789.2 974.563 3886.02 758.103 4007.1 746.475C4210.33 726.958 4276.36 1009.04 4278.55 1029.51C4282.12 1015.86 4329.24 846.221 4464.36 847.767C4605.14 849.378 4727.26 1198.97 4727.26 1198.97C4727.26 1198.97 4774.02 1056.14 4924.51 1056.14C5075 1056.14 5171.16 1306.97 5171.16 1306.97C5171.16 1306.97 5219.26 1041.96 5407.82 1056.14C5563.73 1067.86 5623.44 1198.97 5623.44 1198.97C5623.44 1198.97 5609.53 949.779 5786.94 940.377C5959.87 931.212 6017.09 1157.44 6017.09 1157.44C6017.09 1157.44 6050.6 974.563 6226.48 974.563C6402.37 974.563 6402.37 1306.97 6402.37 1306.97C6402.37 1306.97 6612.44 1256.56 6691.4 1334.64C6768.27 1410.65 6724.4 1659.95 6724.4 1659.95C6724.4 1659.95 6931.74 1565.36 7034.57 1630.4C7118.88 1683.73 7152.73 1856.88 7152.73 1856.88C7152.73 1856.88 7314.03 1680 7443.21 1694.41C7618.21 1713.93 7633.77 1974 7679.53 2078.43V2716.54H3293.14H913.441V1492.57C913.441 1492.57 925.405 1257.52 1108 1198.97Z" fill="url(#paint1_linear)"/>
<path d="M6394.53 2073.51V2629.84H10110.7V1159H9998.42C9896.5 1174.8 9844.41 1299.24 9844.41 1299.24C9844.41 1299.24 9788.36 1092.99 9643.94 1098.68C9527.39 1103.28 9456.85 1258.42 9456.85 1258.42C9456.85 1258.42 9435.82 1033.12 9299.31 1029.76C9144.75 1025.95 9068.8 1175.37 9068.8 1175.37C9068.8 1175.37 9007.53 976.013 8831.49 995.364C8655.44 1014.71 8629.73 1207 8629.73 1207C8629.73 1207 8570.36 891.88 8427.88 911.596C8279.71 932.098 8275.25 1133.15 8275.25 1133.15C8275.25 1133.15 8177.43 972.211 8063.55 995.364C7965.63 1015.27 7919.86 1175.37 7919.86 1175.37C7919.86 1175.37 7790.9 983.723 7640.14 995.364C7462.93 1009.05 7454.29 1258.42 7454.29 1258.42C7454.29 1258.42 7254.23 1099.88 7140.99 1175.37C7046.6 1238.3 7057.95 1507.55 7057.95 1507.55C7057.95 1507.55 6899.41 1398.08 6808.82 1466.03C6678.36 1563.87 6734.24 1842.11 6734.24 1842.11C6734.24 1842.11 6632 1642.43 6487.97 1703.83C6343.94 1765.23 6394.53 2073.51 6394.53 2073.51Z" fill="white"/>
<path d="M4681.38 1811.04V2111.36H6891.96V2001.58C6891.96 2001.58 6986.73 1710.28 6829.19 1616.93C6671.65 1523.57 6488.25 1628.87 6488.25 1628.87C6488.25 1628.87 6516.01 1424.99 6389.78 1377.78C6257.87 1328.46 6089.46 1486.1 6089.46 1486.1C6089.46 1486.1 6000.84 1220.24 5813.75 1220.24C5663.21 1220.24 5557.74 1461.48 5557.74 1461.48C5557.74 1461.48 5501.72 1328.55 5306.65 1328.55C5154.02 1328.55 5114.63 1628.87 5114.63 1628.87C5114.63 1628.87 4953.45 1492.67 4829.08 1545.18C4676.99 1609.39 4681.38 1811.04 4681.38 1811.04Z" fill="url(#paint2_linear)"/>
<path d="M-100.391 1390.19C-92.8091 1316.32 -59.45 1166.01 13.3322 1155.73C86.1143 1145.46 151.695 1202.84 175.387 1232.81C192.445 1168.58 240.518 1078.65 320.383 1078.65C397.934 1078.65 451.163 1210.33 451.163 1210.33C451.163 1210.33 520.052 1043.64 640.497 1078.65C741.598 1108.04 745.734 1224.25 732.466 1277.78C794.065 1240.31 874.162 1183.39 946.816 1262.79C991.38 1311.49 994.187 1430.87 971.444 1451.21C1033.99 1400.9 1184.11 1313.75 1284.18 1367.71C1384.25 1421.67 1415.49 1550.37 1423.08 1576.07C1423.08 1576.07 1468.95 1386.98 1588.38 1386.98C1707.81 1386.98 1778.87 1487.34 1778.87 1487.34C1778.87 1487.34 1839.79 1262.79 2012 1262.79C2144.96 1262.79 2193.95 1415.88 2193.95 1415.88C2193.95 1415.88 2276.83 1225.99 2404.34 1255.57C2531.85 1285.14 2548.97 1464.19 2548.97 1464.19C2548.97 1464.19 2602.77 1297.22 2729.89 1321.37C2827.61 1339.92 2855.9 1504.4 2855.9 1504.4C2855.9 1504.4 2881.86 1324.01 2963.35 1291.78C3026.56 1255.57 3083.18 1341.46 3083.18 1341.46C3083.18 1341.46 3112.07 1117.02 3260.59 1096.1C3409.11 1075.19 3428.87 1291.78 3428.87 1291.78C3428.87 1291.78 3527.19 1013.87 3747.53 1055.66C3967.86 1097.45 3945.19 1417.86 3945.19 1417.86C3945.19 1417.86 4044.3 1235.04 4205.87 1255.57C4367.44 1276.09 4355.68 1493.3 4355.68 1493.3C4355.68 1493.3 4462.18 1408.98 4615.28 1493.3C4768.38 1577.62 4745.21 1837.18 4745.21 1837.18C4745.21 1837.18 4790.85 1708.53 4925.92 1708.53C5061 1708.53 5124.31 2014.43 5124.31 2014.43V2436.88H4488.42H3397.27H-100.397L-100.391 1390.19Z" fill="white"/>
</g>
<defs>
<linearGradient id="paint0_linear" x1="4999.99" y1="11" x2="4999.99" y2="1808.29" gradientUnits="userSpaceOnUse">
<stop stop-color="white"/>
<stop offset="1" stop-color="#E6D8FB"/>
</linearGradient>
<linearGradient id="paint1_linear" x1="4296.48" y1="615.055" x2="4296.48" y2="2716.54" gradientUnits="userSpaceOnUse">
<stop stop-color="white"/>
<stop offset="1" stop-color="#E6D8FB"/>
</linearGradient>
<linearGradient id="paint2_linear" x1="5788.06" y1="1063.06" x2="5788.06" y2="2024.95" gradientUnits="userSpaceOnUse">
<stop stop-color="#E6D8FB"/>
<stop offset="1" stop-color="white"/>
</linearGradient>
<clipPath id="clip0">
<rect width="10000" height="2000" fill="white"/>
</clipPath>
</defs>
</svg>
