<svg width="371" height="201" viewBox="0 0 371 201" fill="none" xmlns="http://www.w3.org/2000/svg">
<path d="M273.249 95.0882C271.749 95.0882 248.469 104.543 240.249 108.588L238.749 114.088L238.249 120.588C238.417 122.266 240.249 126.019 241.249 127.588C243.47 129.433 245.41 131.411 247.249 132.088C249.088 132.766 260.249 129.39 266.249 127.088C272.249 124.787 281.749 121.588 282.249 120.088C282.749 118.588 283.856 115.088 282.249 107.588C280.642 100.088 274.749 95.0882 273.249 95.0882Z" fill="#8AA8F5"/>
<path d="M238.866 128.132H245.366C246.532 126.466 248.366 123.832 248.366 120.632C248.366 117.432 244.199 114.132 241.866 113.632C241.866 113.632 228.545 122.487 228.366 123.132C228.186 123.778 228.065 124.759 228.173 125.714C228.281 126.668 228.902 127.794 229.366 128.132C229.829 128.471 238.866 128.132 238.866 128.132Z" fill="#8AA8F5"/>
<path d="M273.249 95.0882C271.749 95.0882 248.469 104.543 240.249 108.588L238.749 114.088L238.249 120.588C238.417 122.266 240.249 126.019 241.249 127.588C243.47 129.433 245.41 131.411 247.249 132.088C249.088 132.766 260.249 129.39 266.249 127.088C272.249 124.787 281.749 121.588 282.249 120.088C282.749 118.588 283.856 115.088 282.249 107.588C280.642 100.088 274.749 95.0882 273.249 95.0882Z" fill="#8AA8F5"/>
<path d="M238.866 128.132H245.366C246.532 126.466 248.366 123.832 248.366 120.632C248.366 117.432 244.199 114.132 241.866 113.632C241.866 113.632 228.545 122.487 228.366 123.132C228.186 123.778 228.065 124.759 228.173 125.714C228.281 126.668 228.902 127.794 229.366 128.132C229.829 128.471 238.866 128.132 238.866 128.132Z" fill="#8AA8F5"/>
<path d="M250.234 33.1938C248.734 33.1938 225.454 42.649 217.234 46.6938L215.734 52.1938L215.234 58.6938C215.402 60.3711 217.234 64.1241 218.234 65.6938C220.455 67.5387 222.395 69.5163 224.234 70.1938C226.073 70.8712 237.234 67.4953 243.234 65.1938C249.234 62.8923 258.734 59.6938 259.234 58.1938C259.734 56.6938 260.841 53.1938 259.234 45.6938C257.627 38.1938 251.734 33.1938 250.234 33.1938Z" fill="#8AA8F5"/>
<path d="M215.851 66.2379H222.351C223.517 64.5712 225.351 61.9379 225.351 58.7379C225.351 55.5379 221.184 52.2379 218.851 51.7379C218.851 51.7379 205.53 60.5924 205.351 61.2379C205.171 61.8833 205.05 62.865 205.158 63.8193C205.266 64.7735 205.887 65.8994 206.351 66.2379C206.814 66.5763 215.851 66.2379 215.851 66.2379Z" fill="#8AA8F5"/>
<path d="M215.851 66.2379H222.351C223.517 64.5712 225.351 61.9379 225.351 58.7379C225.351 55.5379 221.184 52.2379 218.851 51.7379C218.851 51.7379 205.53 60.5924 205.351 61.2379C205.171 61.8834 205.05 62.865 205.158 63.8193C205.266 64.7735 205.887 65.8994 206.351 66.2379C206.814 66.5763 215.851 66.2379 215.851 66.2379Z" fill="#8AA8F5"/>
<path d="M281.829 78.2201C285.355 76.7493 293.097 72.1857 295.853 65.6973L182.437 115.6C180.685 116.222 181.692 118.065 184.973 119.095C188.254 120.124 193.564 119.019 195.809 118.337L281.829 78.2201Z" fill="#B8CBF9"/>
<path d="M33.6428 125.86L29.1428 118.86L33.6428 115.86L57.6428 113.86L33.6428 125.86Z" fill="#8AA8F5"/>
<path d="M368.643 24.0142C360.143 37.0142 299.643 64.2197 279.143 73.8599L174.143 193L143.643 201L199.643 107.86C186.809 116.027 121.643 148.86 76.1428 148.86C64.6374 148.86 55.4257 149.032 47.8149 149.282L38.6428 156L9.64279 169L27.7617 150.256C18.8193 150.815 12.6437 151.295 5.14279 151.14L0.142792 142.86L38.6428 122.5L5.14279 64.0001L21.6428 55.8599L84.6428 100.36L130.643 83.3599C130.643 83.3599 160.976 70.6886 201.332 54.2501L194.143 48.1392L186.643 41.7642L171.643 29.0142L183.143 24.0142L232.143 41.7642C260.265 30.4305 301.663 11.641 318.643 4.51427C331.525 -0.892554 340.643 0.514253 347.269 3.51423C353.143 6.17368 352.643 7.01425 355.643 7.01425C358.643 7.01425 377.143 11.0142 368.643 24.0142Z" fill="#B8CBF9"/>
<path d="M368.643 24.0142C360.143 37.0142 299.643 64.2197 279.143 73.8599L174.143 193L143.643 201L199.643 107.86C186.809 116.027 121.643 148.86 76.1428 148.86C64.6374 148.86 55.4257 149.032 47.8149 149.282L38.6428 156L9.64279 169L27.7617 150.256C18.8193 150.815 12.6437 151.295 5.14279 151.14L0.142792 142.86L38.6428 122.5L5.14279 64.0001L21.6428 55.8599L84.6428 100.36L130.643 83.3599C130.643 83.3599 160.976 70.6886 201.332 54.2501L194.143 48.1392L186.643 41.7642L171.643 29.0142L183.143 24.0142L232.143 41.7642C260.265 30.4305 301.663 11.641 318.643 4.51427C331.525 -0.892554 340.643 0.514253 347.269 3.51423C353.143 6.17368 352.643 7.01425 355.643 7.01425C358.643 7.01425 377.143 11.0142 368.643 24.0142Z" fill="#B8CBF9"/>
<path d="M368.643 24.0142C360.143 37.0142 299.643 64.2197 279.143 73.8599L174.143 193L143.643 201L199.643 107.86C186.809 116.027 121.643 148.86 76.1428 148.86C64.6374 148.86 55.4257 149.032 47.8149 149.282L38.6428 156L9.64279 169L27.7617 150.256C18.8193 150.815 12.6437 151.295 5.14279 151.14L0.142792 142.86L38.6428 122.5L5.14279 64.0001L22.6428 55.3599L89.1428 99.3599L130.643 83.3599C130.643 83.3599 160.976 70.6886 201.332 54.2501L194.143 48.1392L186.643 41.7642L171.643 29.0142L183.143 24.0142L232.143 41.7642C260.265 30.4305 301.663 11.641 318.643 4.51427C331.525 -0.892554 340.643 0.514253 347.269 3.51423C353.143 6.17368 352.643 7.01425 355.643 7.01425C358.643 7.01425 377.143 11.0142 368.643 24.0142Z" fill="#B8CBF9"/>
<path d="M368.643 24.0142C360.143 37.0142 299.643 64.2197 279.143 73.8599L174.143 193L143.643 201L199.643 107.86C186.809 116.027 121.643 148.86 76.1428 148.86C64.6374 148.86 55.4257 149.032 47.8149 149.282L38.6428 156L9.64279 169L27.7617 150.256C18.8193 150.815 12.6437 151.295 5.14279 151.14L0.142792 142.86L38.6428 122.5L5.14279 64.0001L22.6428 55.3599L89.1428 99.3599L130.643 83.3599C130.643 83.3599 160.976 70.6886 201.332 54.2501L194.143 48.1392L186.643 41.7642L171.643 29.0142L183.143 24.0142L232.143 41.7642C260.265 30.4305 301.663 11.641 318.643 4.51427C331.525 -0.892554 340.643 0.514253 347.269 3.51423C353.143 6.17368 352.643 7.01425 355.643 7.01425C358.643 7.01425 377.143 11.0142 368.643 24.0142Z" fill="#B8CBF9"/>
<path d="M169.595 29.1276L199.772 55.1615L232.595 41.6021L181.772 23.1615L169.595 29.1276Z" fill="#8AA8F5"/>
<path d="M270.322 101.385H266.269C264.022 101.385 251.792 104.848 245.42 106.737C245.227 106.795 245.189 107.02 246.579 107.462C247.969 107.904 247.544 109.488 247.158 110.224L270.322 101.385Z" fill="#7195F1"/>
<path d="M241.336 36.8045H243.95L230.976 41.5184C230.701 41.2428 230.507 41.2224 229.611 40.9273C228.77 40.6504 227.563 40.5108 227.82 40.3996C227.837 40.3923 227.86 40.3851 227.89 40.378C232 39.1168 239.887 36.8045 241.336 36.8045Z" fill="#7195F1"/>
</svg>
